<svg t="1677833013180" class="icon" viewBox="0 0 1024 1024" version="1.1" xmlns="http://www.w3.org/2000/svg" p-id="4909" width="200" height="200"><path d="M926 380.9c0 50.1-35.6 91.8-82.8 101.4V926H180.8V482.3C133.6 472.7 98 431 98 380.9c0-2.4 0.5-4.6 0.7-6.9H98l1.2-4.7c1.2-10.3 3.4-20.3 7.4-29.5L167 98h690l60.5 241.9c4 9.2 6.2 19.1 7.4 29.5l1.2 4.7h-0.7c0.1 2.2 0.6 4.4 0.6 6.8zM387.8 884.6h248.4v-69H387.8v-41.4h248.4v-69H387.8v-41.4h248.4v-69H387.8v289.8z m-165.6 0h123.6V553.4H677v331.2h124.8V482.3c-35.8-7.3-64.4-33.1-76.5-66.9h-12.7c-14.3 40.1-52.2 69-97.2 69s-82.9-28.9-97.2-69h-12.7c-14.3 40.1-52.2 69-97.2 69s-82.9-28.9-97.2-69h-12.7c-12 33.8-40.7 59.6-76.5 66.9v402.3z m503.1-469.2c-0.1-0.2-0.1-0.4-0.2-0.6-2 0.3-4 0.6-6.2 0.6h6.4z m-6.3 0c-2.1 0-4.1-0.3-6.2-0.6-0.1 0.2-0.1 0.4-0.2 0.6h6.4z m-200.7 0c-0.1-0.2-0.1-0.4-0.2-0.6-2 0.3-4 0.6-6.2 0.6h6.4z m-6.3 0c-2.1 0-4.1-0.3-6.2-0.6-0.1 0.2-0.1 0.4-0.2 0.6h6.4z m-200.7 0c-0.1-0.2-0.1-0.4-0.2-0.6-2 0.3-4 0.6-6.2 0.6h6.4z m-6.3 0c-2.1 0-4.1-0.3-6.2-0.6-0.1 0.2-0.1 0.4-0.2 0.6h6.4zM884.6 374l-1.1-3.6c-0.9-5.1-2.3-9.9-4.3-14.5l-63.7-216.5H208.4l-63.7 216.5c-2 4.6-3.4 9.4-4.3 14.5l-1.1 3.6h0.7c-0.3 2.3-0.7 4.5-0.7 6.9 0 34.3 27.8 62.1 62.1 62.1s62.1-27.8 62.1-62.1c0-2.4-0.4-4.6-0.7-6.9h0.7c0-22.9 18.5-41.4 41.4-41.4s41.4 18.5 41.4 41.4h0.7c-0.3 2.3-0.7 4.5-0.7 6.9 0 34.3 27.8 62.1 62.1 62.1s62.1-27.8 62.1-62.1c0-2.4-0.4-4.6-0.7-6.9h0.7c0-22.9 18.5-41.4 41.4-41.4s41.4 18.5 41.4 41.4h0.7c-0.3 2.3-0.7 4.5-0.7 6.9 0 34.3 27.8 62.1 62.1 62.1s62.1-27.8 62.1-62.1c0-2.4-0.4-4.6-0.7-6.9h0.7c0-22.9 18.5-41.4 41.4-41.4s41.4 18.5 41.4 41.4h0.7c-0.3 2.3-0.7 4.5-0.7 6.9 0 34.3 27.8 62.1 62.1 62.1s62.1-27.8 62.1-62.1c0-2.4-0.4-4.6-0.7-6.9h0.8z" p-id="4910"></path></svg>
